<?xml version="1.0" encoding="iso-8859-1"?>
<!-- Generator: Adobe Illustrator 19.0.0, SVG Export Plug-In . SVG Version: 6.00 Build 0)  -->
<svg version="1.1" id="Capa_1" xmlns="http://www.w3.org/2000/svg" xmlns:xlink="http://www.w3.org/1999/xlink" x="0px" y="0px"
	 viewBox="0 0 480 480" style="enable-background:new 0 0 480 480;" xml:space="preserve">
<path style="fill:#78B9EB;" d="M128,128v64v32v240h40h16h112h24h32V224v-32v-64H128z"/>
<path style="fill:#FBB040;" d="M376,120v-16c0-4.418-3.582-8-8-8H112c-4.418,0-8,3.582-8,8v16c0,4.418,3.582,8,8,8h256
	C372.418,128,376,124.418,376,120z"/>
<g>
	<path style="fill:#ABD3F3;" d="M352,224v240h96v-48v-48v-48v-48v-48H352z"/>
	<path style="fill:#ABD3F3;" d="M32,224v48v48v48v48v48h96V224H32z"/>
</g>
<g>
	<path style="fill:#FBB040;" d="M448,224h8c4.418,0,8-3.582,8-8v-16c0-4.418-3.582-8-8-8H352v32H448z"/>
	<path style="fill:#FBB040;" d="M128,192H24c-4.418,0-8,3.582-8,8v16c0,4.418,3.582,8,8,8h104V192z"/>
</g>
<path style="fill:#FFDA44;" d="M184,320v144h112V320c0-4.418-3.582-8-8-8h-96C187.582,312,184,315.582,184,320z"/>
<path style="fill:#FFE477;" d="M344,0H136c-4.418,0-8,3.582-8,8v88h224V8C352,3.582,348.418,0,344,0z"/>
<g>
	<path style="fill:#F1F2F2;" d="M176,168h128v16H176V168z"/>
	<path style="fill:#F1F2F2;" d="M176,216h128v16H176V216z"/>
	<path style="fill:#F1F2F2;" d="M176,264h128v16H176V264z"/>
	<path style="fill:#F1F2F2;" d="M392,264h56v16h-56V264z"/>
	<path style="fill:#F1F2F2;" d="M392,312h56v16h-56V312z"/>
	<path style="fill:#F1F2F2;" d="M392,360h56v16h-56V360z"/>
	<path style="fill:#F1F2F2;" d="M392,408h56v16h-56V408z"/>
	<path style="fill:#F1F2F2;" d="M32,264h56v16H32V264z"/>
	<path style="fill:#F1F2F2;" d="M32,312h56v16H32V312z"/>
	<path style="fill:#F1F2F2;" d="M32,360h56v16H32V360z"/>
</g>
<circle style="fill:#FF5023;" cx="240" cy="48" r="32"/>
<path style="fill:#F1F2F2;" d="M32,408h56v16H32V408z"/>
<path style="fill:#FFFFFF;" d="M264,40h-16V24h-16v16h-16v16h16v16h16V56h16V40z"/>
<path style="fill:#BCBEC0;" d="M0,464h480v16H0V464z"/>
<g>
</g>
<g>
</g>
<g>
</g>
<g>
</g>
<g>
</g>
<g>
</g>
<g>
</g>
<g>
</g>
<g>
</g>
<g>
</g>
<g>
</g>
<g>
</g>
<g>
</g>
<g>
</g>
<g>
</g>
</svg>
