<?xml version="1.0" encoding="iso-8859-1"?>
<!-- Generator: Adobe Illustrator 19.0.0, SVG Export Plug-In . SVG Version: 6.00 Build 0)  -->
<svg version="1.1" id="Capa_1" xmlns="http://www.w3.org/2000/svg" xmlns:xlink="http://www.w3.org/1999/xlink" x="0px" y="0px"
	 viewBox="0 0 464 464" style="enable-background:new 0 0 464 464;" xml:space="preserve">
<rect x="96" y="64" style="fill:#69C229;" width="272" height="400"/>
<rect x="128" y="96" style="fill:#EBE5DD;" width="208" height="336"/>
<path style="fill:#D4C8B8;" d="M304,144h-32c-4.422,0-8-3.578-8-8v-8h-64v8c0,4.422-3.578,8-8,8h-32c-4.422,0-8-3.578-8-8V32
	c0-4.422,3.578-8,8-8h16v16h-8v88h16v-8c0-4.422,3.578-8,8-8h80c4.422,0,8,3.578,8,8v8h16V40h-8V24h16c4.422,0,8,3.578,8,8v104
	C312,140.422,308.422,144,304,144z"/>
<path style="fill:#EBE5DD;" d="M264,64V32c0-17.673-14.327-32-32-32h0c-17.673,0-32,14.327-32,32v32H264z"/>
<rect x="224" y="24" style="fill:#D4C8B8;" width="16" height="16"/>
<rect x="160" y="192" style="fill:#F40E34;" width="32" height="32"/>
<rect x="160" y="256" style="fill:#FFD422;" width="32" height="32"/>
<g>
	<rect x="216" y="200" style="fill:#806749;" width="96" height="16"/>
	<rect x="216" y="264" style="fill:#806749;" width="96" height="16"/>
	<rect x="152" y="328" style="fill:#806749;" width="160" height="16"/>
	<rect x="152" y="392" style="fill:#806749;" width="160" height="16"/>
	<rect x="216" y="152" style="fill:#806749;" width="32" height="16"/>
</g>
<g>
</g>
<g>
</g>
<g>
</g>
<g>
</g>
<g>
</g>
<g>
</g>
<g>
</g>
<g>
</g>
<g>
</g>
<g>
</g>
<g>
</g>
<g>
</g>
<g>
</g>
<g>
</g>
<g>
</g>
</svg>
